<?xml version="1.0" encoding="utf-8"?>
<!-- Generator: Adobe Illustrator 26.0.1, SVG Export Plug-In . SVG Version: 6.00 Build 0)  -->
<svg version="1.1" id="Layer_1" xmlns="http://www.w3.org/2000/svg" xmlns:xlink="http://www.w3.org/1999/xlink" x="0px" y="0px"
	 viewBox="0 0 300 114.3" style="enable-background:new 0 0 300 114.3;" xml:space="preserve">
<style type="text/css">
	.st0{clip-path:url(#SVGID_00000021809082492330413420000003109801130386371216_);fill:#652E8C;}
	.st1{fill:#F16622;}
	.st2{clip-path:url(#SVGID_00000031923255293108229360000012000697961159629449_);fill:#F16622;}
	.st3{clip-path:url(#SVGID_00000031923255293108229360000012000697961159629449_);fill:#652E8C;}
</style>
<g>
	<g>
		<defs>
			<rect id="SVGID_1_" x="-49.3" y="-48.6" width="398.5" height="211.6"/>
		</defs>
		<clipPath id="SVGID_00000115498362003155606750000004308926033083820697_">
			<use xlink:href="#SVGID_1_"  style="overflow:visible;"/>
		</clipPath>
		<path style="clip-path:url(#SVGID_00000115498362003155606750000004308926033083820697_);fill:#652E8C;" d="M111.9,34.9H95.4
			c-1.5,0-2.3,0.5-2.7,1c-0.6,0.7-0.7,1.6-0.7,2.3v3.1h1.7v-0.5c0-2.4,1.2-3.5,3.8-3.5h2.6v21.4h4.1V37.3h7.8V34.9z"/>
		<path style="clip-path:url(#SVGID_00000115498362003155606750000004308926033083820697_);fill:#652E8C;" d="M132.7,56.3
			c-0.5-0.5-0.9-1.3-1.5-2.6l-7.7-18.7h-1.7l-10.1,23.8h2.7l2.7-6.6h9l0.8,1.9c0.8,2.3,2.1,3.4,3.1,4c1.3,0.7,2.4,0.8,3.2,0.8
			c0.6,0,1.1-0.1,1.5-0.2l0.4-0.1v-1.5l-0.4,0C133.8,56.9,133.2,56.7,132.7,56.3 M125,49.8h-7l3.5-8.2L125,49.8z"/>
		<path style="clip-path:url(#SVGID_00000115498362003155606750000004308926033083820697_);fill:#652E8C;" d="M141,39.6
			c0-1.9-0.2-3-0.7-3.7c-0.7-0.8-1.8-0.9-2.9-0.9h-3.7v1.7h1.2c1.5,0,1.9,0.7,1.9,3v19.1h16.3v-2.4H141V39.6z"/>
		<path style="clip-path:url(#SVGID_00000115498362003155606750000004308926033083820697_);fill:#652E8C;" d="M171.1,52.9
			c-1,2.5-2.4,3.5-5.4,3.5h-5.5v-8.7h9.3v-2.4h-9.3v-8h5.9c2.6,0,3.8,1.1,3.8,3.5v0.5h1.7v-3.1c0-0.9-0.2-1.7-0.7-2.3
			c-0.4-0.5-1.2-1-2.7-1h-15.2v1.7h1.2c1.5,0,1.9,0.7,1.9,3v19.1h12.4c1.5,0,2.6-0.7,3-2.1l1.4-3.8l-1.7-0.4L171.1,52.9z"/>
		<path style="clip-path:url(#SVGID_00000115498362003155606750000004308926033083820697_);fill:#652E8C;" d="M192,51.1l-11.2-13.9
			c-1.4-1.6-2.9-2.2-5.1-2.2h-2.7v1.7h0.8c1.8,0,2.6,0.9,2.6,3v19.1h2.4V41.5L193,59.1h1.5V34.9H192V51.1z"/>
		<path style="clip-path:url(#SVGID_00000115498362003155606750000004308926033083820697_);fill:#652E8C;" d="M228.3,56.3
			c-0.5-0.5-0.9-1.3-1.5-2.6l-7.7-18.7h-1.7l-10.1,23.8h2.7l2.7-6.6h9l0.8,1.9c0.8,2.3,2.1,3.4,3.1,4c1.3,0.7,2.4,0.8,3.2,0.8
			c0.6,0,1.1-0.1,1.5-0.2l0.4-0.1v-1.5l-0.4,0C229.4,56.9,228.8,56.7,228.3,56.3 M220.6,49.8h-7l3.5-8.2L220.6,49.8z"/>
		<path style="clip-path:url(#SVGID_00000115498362003155606750000004308926033083820697_);fill:#652E8C;" d="M248.4,48.4
			c0,3.1-0.4,5.1-1.4,6.4c-1,1.3-2.6,1.9-5.1,1.9c-2.1,0-3.5-0.6-4.3-1.8c-0.9-1.2-1.3-2.9-1.3-5.4v-9.8c0-1.9-0.2-3-0.7-3.7
			c-0.7-0.8-1.8-0.9-2.9-0.9h-3.6v1.7h1.2c1.5,0,1.9,0.7,1.9,3v8.8c0,3.7,0.6,6.3,2,7.9c1.5,1.9,3.9,2.8,7.3,2.8
			c3.6,0,6-0.9,7.5-2.8c1.3-1.6,1.8-4.1,1.8-7.9V34.9h-2.4V48.4z"/>
		<path style="clip-path:url(#SVGID_00000115498362003155606750000004308926033083820697_);fill:#652E8C;" d="M296.3,57
			c-0.9-0.1-1.4-0.3-1.9-0.8c-0.5-0.5-0.9-1.3-1.5-2.6l-7.7-18.8h-1.7L274.2,57l-0.2,0c-0.9-0.1-1.5-0.3-2-0.8
			c-0.8-0.7-1.6-1.6-2.3-2.9l-3.3-5.4c1-0.3,2.2-0.8,3.2-1.6c1.3-1.1,2-2.6,2-4.6c0-3.3-1.9-4.9-3.5-5.6c-1.5-0.7-3.4-1.1-5.6-1.1
			H253v1.7h1.2c1.5,0,1.9,0.7,1.9,3v19.1h4.1V48.2h1.6l3.3,5.6c1.1,2,2.1,3.2,3.2,4.1c1,0.8,2.1,1.2,3.5,1.2c1,0,1.9-0.3,2.2-0.4
			h2.1l2.7-6.6h9l0.8,1.9c0.8,2.3,2.1,3.4,3.1,4c1.3,0.7,2.4,0.8,3.2,0.8c0.6,0,1.1-0.1,1.5-0.2l0.4-0.1v-1.5L296.3,57z M286.8,49.8
			h-7l3.5-8.2L286.8,49.8z M260.3,37.4c0.6-0.2,1.4-0.2,2.1-0.2c0.7,0,2,0.3,3.1,1.1c0.8,0.6,1.7,1.6,1.7,3.4c0,1.4-0.6,2.5-1.7,3.3
			c-1.1,0.8-2.3,1.1-3.1,1.1c-0.7,0-1.4-0.1-2.1-0.2V37.4z"/>
	</g>
	<g>
		<g>
			<path class="st1" d="M106.6,77v4.9h-1.6V68.7h3.6c1.4,0,2.5,0.4,3.3,1.1c0.8,0.7,1.2,1.7,1.2,3c0,1.3-0.4,2.3-1.3,3.1
				c-0.9,0.8-2,1.2-3.5,1.2H106.6z M106.6,70.1v5.6h1.6c1.1,0,1.9-0.3,2.5-0.8c0.6-0.5,0.8-1.2,0.8-2.1c0-0.9-0.3-1.6-0.8-2
				c-0.5-0.5-1.3-0.7-2.3-0.7H106.6z"/>
			<path class="st1" d="M124,73.7c-0.1,0-0.2-0.1-0.3-0.1c-0.1,0-0.2,0-0.4,0c-0.8,0-1.4,0.3-1.8,1c-0.4,0.7-0.7,1.5-0.7,2.5v4.8
				h-1.5v-9.5h1.5v1.9h0c0.2-0.7,0.5-1.2,1-1.5c0.4-0.3,1-0.5,1.5-0.5c0.2,0,0.4,0,0.5,0c0.1,0,0.3,0,0.4,0.1L124,73.7z"/>
			<path class="st1" d="M130.5,70.2c-0.3,0-0.6-0.1-0.8-0.3c-0.2-0.2-0.3-0.5-0.3-0.8s0.1-0.6,0.3-0.8c0.2-0.2,0.5-0.3,0.8-0.3
				s0.6,0.1,0.8,0.3c0.2,0.2,0.3,0.5,0.3,0.8s-0.1,0.6-0.3,0.8C131,70.1,130.8,70.2,130.5,70.2z M131.2,81.9h-1.5v-9.5h1.5V81.9z"/>
			<path class="st1" d="M145.5,72.4l-3.8,9.5h-1.5l-3.6-9.5h1.7l2.4,6.9c0.1,0.3,0.2,0.5,0.2,0.7c0.1,0.2,0.1,0.4,0.1,0.6h0
				c0-0.2,0.1-0.5,0.1-0.7s0.1-0.4,0.2-0.6l2.5-6.9H145.5z"/>
			<path class="st1" d="M157.7,81.9h-1.5v-1.5h0c-0.3,0.6-0.7,1-1.2,1.3c-0.5,0.3-1,0.4-1.7,0.4c-0.9,0-1.6-0.3-2.2-0.8
				c-0.6-0.5-0.8-1.2-0.8-2.1c0-0.8,0.3-1.5,0.8-2s1.3-0.9,2.4-1l2.7-0.4v-0.2c0-0.8-0.2-1.4-0.6-1.7c-0.4-0.3-0.9-0.5-1.5-0.5
				c-0.5,0-1,0.1-1.4,0.3c-0.5,0.2-0.9,0.5-1.3,0.9l-0.9-0.9c0.5-0.5,1.1-0.9,1.7-1.1c0.6-0.2,1.3-0.4,2-0.4c1.1,0,2,0.3,2.6,0.9
				c0.6,0.6,0.9,1.5,0.9,2.6V81.9z M156.2,78.1v-0.9l-2.3,0.3c-0.7,0.1-1.2,0.3-1.6,0.5s-0.5,0.7-0.5,1.2c0,0.6,0.2,1,0.5,1.3
				s0.7,0.4,1.2,0.4c0.8,0,1.5-0.3,2-0.8C156,79.6,156.2,78.9,156.2,78.1z"/>
			<path class="st1" d="M169,81.8c-0.3,0.1-0.5,0.2-0.8,0.2c-0.2,0.1-0.5,0.1-0.8,0.1c-0.8,0-1.3-0.2-1.8-0.7
				c-0.4-0.4-0.6-1.1-0.6-2v-5.8h-1.6v-1.3h1.6v-2.3l1.5-0.5v2.8h2.4v1.3h-2.4v5.6c0,0.5,0.1,0.9,0.3,1.2c0.2,0.2,0.5,0.4,0.9,0.4
				c0.2,0,0.4,0,0.5-0.1s0.3-0.1,0.4-0.1L169,81.8z"/>
			<path class="st1" d="M182.3,77.5h-6.7c0,1.1,0.3,1.9,0.8,2.5c0.5,0.6,1.3,0.9,2.3,0.9c0.4,0,0.9-0.1,1.3-0.2
				c0.4-0.1,0.9-0.3,1.3-0.6l0.7,1.1c-0.5,0.3-1.1,0.6-1.6,0.8c-0.5,0.2-1.1,0.2-1.8,0.2c-1.4,0-2.5-0.4-3.3-1.3
				c-0.8-0.9-1.2-2-1.2-3.6c0-1.5,0.4-2.8,1.2-3.7c0.8-0.9,1.9-1.4,3.2-1.4c1.2,0,2.2,0.4,2.9,1.2c0.7,0.8,1,1.9,1,3.3V77.5z
				 M180.8,76.3c0-0.9-0.2-1.6-0.6-2c-0.4-0.5-1-0.7-1.7-0.7c-0.7,0-1.3,0.3-1.8,0.8c-0.5,0.5-0.8,1.2-0.9,2H180.8z"/>
			<path class="st1" d="M204.6,81.9h-6.9V68.7h1.6v11.9h5.3V81.9z"/>
			<path class="st1" d="M211,70.2c-0.3,0-0.6-0.1-0.8-0.3c-0.2-0.2-0.3-0.5-0.3-0.8s0.1-0.6,0.3-0.8c0.2-0.2,0.5-0.3,0.8-0.3
				s0.6,0.1,0.8,0.3c0.2,0.2,0.3,0.5,0.3,0.8s-0.1,0.6-0.3,0.8C211.6,70.1,211.3,70.2,211,70.2z M211.7,81.9h-1.5v-9.5h1.5V81.9z"/>
			<path class="st1" d="M232.1,81.9h-1.5v-5.4c0-1-0.2-1.8-0.5-2.3c-0.3-0.5-0.9-0.7-1.6-0.7c-0.6,0-1.2,0.3-1.7,0.9
				c-0.5,0.6-0.7,1.3-0.7,2.1v5.4h-1.5v-5.6c0-0.9-0.2-1.6-0.5-2.1c-0.4-0.5-0.9-0.7-1.6-0.7c-0.7,0-1.2,0.3-1.6,0.8
				c-0.4,0.6-0.6,1.3-0.6,2.2v5.4h-1.5v-9.5h1.5v1.5h0c0.3-0.6,0.8-1,1.2-1.3c0.5-0.3,1.1-0.4,1.7-0.4c0.6,0,1.2,0.2,1.7,0.5
				c0.5,0.4,0.8,0.8,1,1.4c0.4-0.7,0.8-1.1,1.3-1.5s1.1-0.5,1.8-0.5c1,0,1.8,0.3,2.3,1c0.5,0.6,0.8,1.6,0.8,2.9V81.9z"/>
			<path class="st1" d="M239.5,70.2c-0.3,0-0.6-0.1-0.8-0.3c-0.2-0.2-0.3-0.5-0.3-0.8s0.1-0.6,0.3-0.8c0.2-0.2,0.5-0.3,0.8-0.3
				s0.6,0.1,0.8,0.3c0.2,0.2,0.3,0.5,0.3,0.8s-0.1,0.6-0.3,0.8C240.1,70.1,239.8,70.2,239.5,70.2z M240.2,81.9h-1.5v-9.5h1.5V81.9z"
				/>
			<path class="st1" d="M251.6,81.8c-0.3,0.1-0.5,0.2-0.8,0.2c-0.2,0.1-0.5,0.1-0.8,0.1c-0.8,0-1.3-0.2-1.8-0.7
				c-0.4-0.4-0.6-1.1-0.6-2v-5.8H246v-1.3h1.6v-2.3l1.5-0.5v2.8h2.4v1.3h-2.4v5.6c0,0.5,0.1,0.9,0.3,1.2c0.2,0.2,0.5,0.4,0.9,0.4
				c0.2,0,0.4,0,0.5-0.1s0.3-0.1,0.4-0.1L251.6,81.8z"/>
			<path class="st1" d="M265,77.5h-6.7c0,1.1,0.3,1.9,0.8,2.5c0.5,0.6,1.3,0.9,2.3,0.9c0.4,0,0.9-0.1,1.3-0.2
				c0.4-0.1,0.9-0.3,1.3-0.6l0.7,1.1c-0.5,0.3-1.1,0.6-1.6,0.8c-0.5,0.2-1.1,0.2-1.8,0.2c-1.4,0-2.5-0.4-3.3-1.3
				c-0.8-0.9-1.2-2-1.2-3.6c0-1.5,0.4-2.8,1.2-3.7c0.8-0.9,1.9-1.4,3.2-1.4c1.2,0,2.2,0.4,2.9,1.2c0.7,0.8,1,1.9,1,3.3V77.5z
				 M263.4,76.3c0-0.9-0.2-1.6-0.6-2c-0.4-0.5-1-0.7-1.7-0.7c-0.7,0-1.3,0.3-1.8,0.8c-0.5,0.5-0.8,1.2-0.9,2H263.4z"/>
			<path class="st1" d="M277.6,80.3c-0.4,0.6-0.8,1.1-1.3,1.4c-0.5,0.3-1.2,0.5-1.9,0.5c-1.2,0-2.1-0.4-2.9-1.3
				c-0.7-0.8-1.1-2-1.1-3.5c0-1.6,0.4-2.8,1.2-3.8c0.8-0.9,1.8-1.4,3.2-1.4c0.7,0,1.2,0.1,1.7,0.4c0.5,0.3,0.9,0.6,1.2,1.2h0v-5.9
				h1.5v14h-1.5L277.6,80.3L277.6,80.3z M272,77.3c0,1.1,0.3,2,0.8,2.6c0.5,0.6,1.2,0.9,2,0.9c0.9,0,1.5-0.3,2.1-0.9
				c0.5-0.6,0.8-1.4,0.8-2.3v-1.4c0-0.8-0.3-1.4-0.8-1.9s-1.1-0.8-1.9-0.8c-0.9,0-1.7,0.3-2.2,1C272.3,75.2,272,76.1,272,77.3z"/>
		</g>
	</g>
	<g>
		<defs>
			<rect id="SVGID_00000059271102346972254260000004377627924717834627_" x="-49.3" y="-48.6" width="398.5" height="211.6"/>
		</defs>
		<clipPath id="SVGID_00000062160957297545591420000007565834920775592078_">
			<use xlink:href="#SVGID_00000059271102346972254260000004377627924717834627_"  style="overflow:visible;"/>
		</clipPath>
		<path style="clip-path:url(#SVGID_00000062160957297545591420000007565834920775592078_);fill:#F16622;" d="M27.1,93.9
			c1.1,0.1,2.2,0.2,3.2,0.3c3,0.4,5.9,0.5,8.9,0.3c3.8-0.2,7.5-1.1,11.1-2.4c3-1.1,5.9-2.7,8.6-4.5c3.4-2.3,6.3-5.1,8.8-8.3
			c1.8-2.3,3.3-4.8,4.5-7.5c1.3-2.8,2.1-5.6,2.6-8.6c0.6-3.6,0.7-7.2,0.2-10.9c-0.6-3.9-1.6-7.6-3.4-11.2c-2.2-4.6-5.3-8.5-9.1-11.8
			c-2.9-2.5-6.1-4.6-9.7-6.2c-2.5-1.1-5.1-2-7.7-2.6c-4.9-1.1-10-1.2-15-0.6c-0.8,0.1-1.5,0.3-2.3,0.5c-0.4,0.1-0.8,0.1-1.3,0.2
			c0-0.1-0.1-0.1-0.1-0.2c0.4-0.2,0.7-0.5,1.1-0.6c3.2-1.4,6.5-2.3,9.9-2.7c2.6-0.3,5.3-0.5,8-0.3c4.1,0.3,8.1,1.3,12,2.9
			c7,2.9,12.6,7.5,17.1,13.6c2.3,3.2,4.1,6.7,5.4,10.5c1.1,3.3,1.8,6.6,2.1,10.1c0.2,2.9,0.1,5.8-0.2,8.7c-0.5,3.7-1.5,7.3-3,10.7
			c-1.5,3.3-3.3,6.4-5.5,9.3c-2.7,3.4-5.8,6.2-9.4,8.6c-3.3,2.2-6.9,3.9-10.8,4.9c-4.2,1.2-8.6,1.6-13,1.3c-2.9-0.2-5.8-0.7-8.6-1.6
			c-1.3-0.4-2.6-0.9-3.9-1.4c-0.2-0.1-0.3-0.2-0.4-0.3C27,94.1,27.1,94,27.1,93.9"/>
		<path style="clip-path:url(#SVGID_00000062160957297545591420000007565834920775592078_);fill:#652E8C;" d="M57.7,31.7
			c0.6,5.6,0.8,11,0.1,16.4c-0.3,2.7-0.7,5.4-1.2,8.1C56,59.5,55,62.8,53.7,66c-2.5,6.5-5.9,12.4-10.3,17.7c-1.6,2-3.5,3.8-5.3,5.7
			c-0.1,0.1-0.2,0.2-0.3,0.4c3.9,0.6,7.7,0.1,11.5-0.4c0,0.1,0,0.2,0.1,0.3c-0.9,0.4-1.8,0.8-2.7,1.1c-4.1,1.4-8.3,2.1-12.6,1.7
			c-2.7-0.2-5.2-0.7-7.8-1.6c-7.7-2.6-13.5-7.6-17.8-14.4c-1.9-3-3.2-6.2-4.1-9.6C3.4,63,3,59,3.3,55c0.2-4,1-7.8,2.5-11.5
			c2.7-6.8,7-12.3,13.3-16.5c1.4-1,3-1.8,4.6-2.5c5.3-2.2,10.8-3.2,16.5-2.4c3.1,0.4,6,1.2,8.8,2.4c0.3,0.1,0.5,0.3,0.8,0.6
			c-11.8-2.3-22.3,0.2-31.1,8.6c-4.9,4.7-8.1,10.5-9.3,17.1C6.2,67.6,15.8,82.6,30.1,88c0.8-1.9,1.6-3.7,2.3-5.6
			c0.8-2.2,1.5-4.4,2.1-6.7c1.1-4.2,1.6-8.4,1.2-12.7c-0.3-2.9-1.1-5.5-2.8-7.9c-1.6-2.3-3.8-3.9-6.5-4.9C23.1,49,19.6,48.6,16,49
			c-0.4,0-0.9,0.1-1.3,0.1c-0.1,0-0.1,0-0.5-0.1c1.3-0.5,2.5-1.1,3.7-1.4c1.9-0.5,3.9-1.1,5.9-1.4c2.9-0.4,5.8-0.4,8.7,0.3
			c5.7,1.3,10,4.6,13.3,9.3c1.1,1.5,2,3.1,3,4.8c-0.1-0.6-0.1-1.1-0.3-1.7c-0.7-2.3-1.4-4.7-2.1-7c-0.2-0.6-0.2-1,0.3-1.5
			c3.7-3.4,6.4-7.5,8.4-12.1c0.8-2,1.5-4,2.2-6.1C57.4,32,57.5,31.9,57.7,31.7"/>
		<path style="clip-path:url(#SVGID_00000062160957297545591420000007565834920775592078_);fill:#652E8C;" d="M46.7,41.5
			c0,3.9-3.9,7-7.9,5.5c-1.7-0.6-3-2.1-3.5-3.8c-1.1-3.9,1.9-7.5,5.6-7.5C44.1,35.6,46.7,38.3,46.7,41.5"/>
	</g>
</g>
</svg>
