<?xml version="1.0" encoding="utf-8"?>
<!-- Generator: Adobe Illustrator 26.0.1, SVG Export Plug-In . SVG Version: 6.00 Build 0)  -->
<svg version="1.1" id="Layer_1" xmlns="http://www.w3.org/2000/svg" xmlns:xlink="http://www.w3.org/1999/xlink" x="0px" y="0px"
	 viewBox="0 0 35 35" style="enable-background:new 0 0 35 35;" xml:space="preserve">
<g>
	<path d="M33.4,16.4c-0.3,0.4-0.7,0.8-1,1.3c-0.4,0.4-0.6,0.5-1.1,0.1c-2.8-2.4-5.7-4.8-8.5-7.2c-1.5-1.3-3-2.6-4.5-3.8
		c-0.5-0.5-0.9-0.5-1.5,0c-4,3.4-8.1,6.8-12.1,10.2c-0.4,0.3-0.7,0.6-1.1,0.9c-0.3,0.3-0.6,0.2-0.9-0.1c-0.3-0.4-0.6-0.7-0.9-1.1
		c-0.3-0.4-0.3-0.7,0.1-1c2.7-2.3,5.5-4.6,8.2-6.9c2.4-2,4.7-4,7.1-6c0.3-0.3,0.3-0.3,0.7,0c5.1,4.3,10.2,8.6,15.2,12.8
		c0.1,0.1,0.2,0.3,0.4,0.4C33.4,16.2,33.4,16.3,33.4,16.4z"/>
	<path d="M13.3,32.4c-0.2,0-0.3,0-0.4,0c-2.3,0-4.6,0-7,0c-0.5,0-0.5,0-0.5-0.4c0-4.8,0-9.6,0-14.3c0-0.2,0.1-0.4,0.2-0.5
		c3.8-3.2,7.7-6.5,11.5-9.7c0.2-0.2,0.3-0.2,0.5,0c3.9,3.3,7.7,6.5,11.6,9.8c0.1,0.1,0.2,0.3,0.2,0.4c0,4.8,0,9.7,0,14.5
		c0,0.2,0,0.4-0.3,0.4c-2.5,0-4.9,0-7.4,0c0,0-0.1,0-0.1,0c0-0.1,0-0.3,0-0.4c0-3.3,0-6.6,0-9.9c0-0.1,0-0.3,0-0.4
		c-0.1-0.5-0.4-0.9-0.9-0.9c-2.2,0-4.3,0-6.5,0c-0.5,0-0.9,0.4-0.9,0.9c0,0.1,0,0.3,0,0.4c0,3.3,0,6.5,0,9.8
		C13.3,32.1,13.3,32.2,13.3,32.4z"/>
	<path d="M29.5,11.6c-1-0.8-1.9-1.7-2.9-2.4c-0.6-0.4-0.8-0.9-0.8-1.7c0.1-1.2,0-2.3,0-3.5c0-0.3,0.1-0.4,0.4-0.4c1,0,2,0,3,0
		c0.2,0,0.3,0.1,0.3,0.3c0,2.5,0,5,0,7.5C29.5,11.5,29.5,11.5,29.5,11.6z"/>
</g>
</svg>
