<?xml version="1.0" encoding="utf-8"?>
<!-- Generator: Adobe Illustrator 26.0.1, SVG Export Plug-In . SVG Version: 6.00 Build 0)  -->
<svg version="1.1" id="Layer_1" xmlns="http://www.w3.org/2000/svg" xmlns:xlink="http://www.w3.org/1999/xlink" x="0px" y="0px"
	 viewBox="0 0 10.7 7.2" style="enable-background:new 0 0 10.7 7.2;" xml:space="preserve">
<style type="text/css">
	.st0{fill:#1B3C6A;}
	.st1{fill:none;}
	.st2{fill:#FFFFFF;}
</style>
<rect x="0" y="0" class="st0" width="10.7" height="7.3"/>
<rect x="-22.1" y="9.5" class="st1" width="10.1" height="8.9"/>
<g>
	<path class="st2" d="M5.6,3.5c0,0.1,0,0.1,0,0.2c-0.2,0-0.4,0-0.7,0c0-0.8,0-1.6,0-2.4c-0.3,0-0.5,0-0.8,0c0-0.2,0-0.4,0-0.6
		c0.1,0,0.1,0,0.2,0c0,0.1,0,0.2,0,0.4c0,0,0.1,0,0.1,0c0.2,0,0.4,0,0.6,0c0.1,0,0.1,0,0.1,0.1c0,0.8,0,1.5,0,2.3
		c0,0.1,0,0.1,0.1,0.1C5.3,3.5,5.4,3.5,5.6,3.5z"/>
	<path class="st2" d="M6.4,5.7c0-0.4,0-0.8,0-1.2c0,0,0.1,0,0.1,0c0.1,0,0.3,0,0.4,0c0.2,0,0.3,0,0.3,0.2c0.1,0.1,0,0.3-0.1,0.4
		c0,0,0,0,0,0c0,0,0.1,0.1,0.1,0.1c0.1,0.2,0,0.5-0.2,0.5C6.7,5.7,6.6,5.7,6.4,5.7z M6.6,5.5c0.1,0,0.2,0,0.3,0C7,5.5,7,5.4,7,5.3
		c0-0.1,0-0.2-0.1-0.2c-0.1,0-0.2,0-0.3,0C6.6,5.3,6.6,5.4,6.6,5.5z M6.6,4.9c0.1,0,0.2,0,0.3,0C6.9,4.9,7,4.9,7,4.8
		c0-0.1,0-0.2-0.1-0.2c-0.1,0-0.2,0-0.3,0C6.6,4.7,6.6,4.8,6.6,4.9z"/>
	<path class="st2" d="M4.8,4.8c0,0.3,0,0.6,0,0.8c-0.1,0-0.1,0-0.2,0c0-0.4,0-0.8,0-1.2c0.1,0,0.2,0,0.3,0.1C5,4.8,5.2,5,5.4,5.2
		c0,0,0,0,0,0.1c0-0.3,0-0.6,0-0.8c0.1,0,0.1,0,0.2,0c0,0.4,0,0.8,0,1.2c-0.1,0-0.2,0-0.2-0.1C5.2,5.4,5,5.1,4.8,4.8
		C4.9,4.9,4.8,4.9,4.8,4.8z"/>
	<path class="st2" d="M2.2,5.7c-0.1,0-0.2,0-0.3,0c0,0,0-0.1,0-0.1c0-0.4,0-0.8,0-1.2c0-0.1,0-0.1-0.1-0.1c-0.1,0-0.2,0-0.4,0
		c0-0.1,0-0.2,0-0.2c0,0,0,0,0.1,0c0.3,0,0.7,0,1,0c0.1,0,0.1,0,0.1,0.1c0,0,0,0.1,0,0.2c-0.2,0-0.3,0-0.5,0
		C2.2,4.8,2.2,5.2,2.2,5.7z"/>
	<path class="st2" d="M4.4,5.5c0,0.1,0,0.1,0,0.2c-0.2,0-0.5,0-0.7,0c0-0.4,0-0.8,0-1.2c0.2,0,0.5,0,0.7,0c0,0.1,0,0.1,0,0.2
		c-0.2,0-0.3,0-0.5,0c0,0.1,0,0.2,0,0.3C4,5,4.1,5,4.3,5c0,0.1,0,0.1,0,0.2c-0.2,0-0.3,0-0.5,0c0,0.1,0,0.2,0,0.3
		C4,5.5,4.2,5.5,4.4,5.5z"/>
	<path class="st2" d="M2.7,4.5c0.2,0,0.5,0,0.7,0c0,0.1,0,0.1,0,0.2c-0.2,0-0.3,0-0.5,0c0,0.1,0,0.2,0,0.3c0.1,0,0.3,0,0.4,0
		c0,0.1,0,0.1,0,0.2c-0.1,0-0.3,0-0.4,0c0,0.1,0,0.2,0,0.3c0.2,0,0.3,0,0.5,0c0,0.1,0,0.1,0,0.2c-0.2,0-0.5,0-0.7,0
		C2.7,5.3,2.7,4.9,2.7,4.5z"/>
	<path class="st2" d="M7.9,5.7c0.2-0.3,0.4-0.7,0.6-1c-0.2,0-0.4,0-0.5,0c0-0.1,0-0.1,0-0.2c0.3,0,0.6,0,0.9,0
		c-0.2,0.3-0.4,0.7-0.6,1c0.2,0,0.4,0,0.6,0c0,0.1,0,0.1,0,0.2C8.5,5.7,8.2,5.7,7.9,5.7z"/>
	<path class="st2" d="M7.7,5.7c-0.1,0-0.1,0-0.2,0c0,0,0-0.1,0-0.1c0-0.4,0-0.7,0-1.1c0-0.1,0-0.1,0.1-0.1c0,0,0.1,0,0.1,0
		C7.7,4.9,7.7,5.3,7.7,5.7z"/>
	<path class="st2" d="M6.5,1.1c0,0.1,0,0.1,0,0.2c0,0,0,0-0.1,0c-0.2,0-0.5,0-0.7,0c-0.1,0-0.1,0-0.1-0.1c0,0,0-0.1,0-0.1
		C6,1.1,6.2,1.1,6.5,1.1z"/>
	<path class="st2" d="M2.6,6c0,0.1,0,0.2,0,0.3c0,0,0,0,0,0c0,0,0,0,0,0c0,0,0-0.1,0-0.1c0,0,0,0.1,0,0.1c0,0,0,0,0,0c0,0,0,0,0,0
		c0-0.1,0-0.2,0-0.3c0,0,0,0,0.1,0.2c0,0,0-0.1,0-0.1c0,0,0,0,0,0c0,0,0,0,0,0.1c0,0,0,0.1,0,0.1C2.6,6.1,2.5,6,2.6,6
		C2.6,6,2.6,6,2.6,6z"/>
	<path class="st2" d="M1.3,6.1c0.1,0,0-0.2,0.1-0.2c0,0.1,0,0.2,0,0.3c0,0,0,0,0,0C1.4,6.2,1.4,6.2,1.3,6.1C1.4,6.1,1.4,6.1,1.3,6.1
		c0.1,0,0.1,0.1,0,0.1c0,0,0,0,0,0.1c0,0,0,0,0-0.1C1.3,6.2,1.3,6.2,1.3,6.1c-0.1,0-0.1,0.1-0.1,0.2c0,0,0,0,0,0c0,0,0,0,0,0
		c0-0.1,0-0.2,0-0.3C1.3,6,1.3,6,1.3,6C1.3,6.1,1.3,6.1,1.3,6.1z"/>
	<path class="st2" d="M3.1,6.2c0,0,0,0.1-0.1,0.1c0-0.1,0-0.2,0-0.3c0.1,0,0.1,0,0.2,0C3.3,6.1,3.3,6.1,3.1,6.2
		c0.1,0,0.1,0.1,0.2,0.1C3.2,6.3,3.2,6.2,3.1,6.2z M3.1,6.1C3.2,6.1,3.2,6.1,3.1,6.1C3.2,6.1,3.2,6,3.1,6.1C3.2,6,3.1,6,3.1,6.1
		C3.1,6.1,3.1,6.1,3.1,6.1z"/>
	<path class="st2" d="M8,6.3c-0.1,0-0.1-0.1-0.1-0.2c0,0,0,0.1-0.1,0.2c0-0.1,0-0.2,0-0.3c0,0,0,0,0.1,0.1c0,0,0,0.1,0.1,0.1
		c0,0,0-0.1,0-0.1c0,0,0,0,0,0c0,0,0,0,0,0C8,6.1,8,6.2,8,6.3z"/>
	<path class="st2" d="M5,6.3C4.9,6.3,5,6.2,4.9,6.2c0,0,0,0.1,0,0.2c0,0,0,0,0-0.1c0-0.1,0-0.2,0-0.3C4.9,6,5,6,5,6c0,0,0,0.1,0,0.1
		C5,6.2,5,6.2,5,6.3z M4.9,6.1C4.9,6.1,4.9,6.1,4.9,6.1C5,6.1,5,6,4.9,6.1C4.9,6,4.9,6,4.9,6.1C4.9,6.1,4.9,6.1,4.9,6.1z"/>
	<path class="st2" d="M7.5,6.3c-0.1,0-0.1-0.2,0-0.3C7.5,6,7.5,6,7.5,6c0,0,0,0.1,0.1,0.1c0-0.1,0-0.1,0-0.2c0,0,0,0,0,0
		c0,0.1,0,0.2,0,0.3C7.6,6.3,7.6,6.3,7.5,6.3c0-0.1,0-0.1,0-0.2C7.5,6.2,7.5,6.2,7.5,6.3z"/>
	<path class="st2" d="M3.7,6.3c0-0.1,0-0.2,0-0.3c0.1,0,0.1,0,0.2,0c0,0.1,0,0.2,0,0.2C3.9,6.3,3.8,6.3,3.7,6.3z M3.8,6.2
		c0.1,0,0.1,0,0.1-0.1C3.9,6,3.9,6,3.8,6C3.8,6.1,3.8,6.2,3.8,6.2z"/>
	<path class="st2" d="M9.5,6.3c0-0.1,0-0.2,0-0.3c0.1,0,0.1,0,0.2,0c0,0.1,0,0.2,0,0.2C9.6,6.3,9.5,6.3,9.5,6.3z M9.5,6.2
		C9.6,6.2,9.6,6.2,9.5,6.2C9.6,6.1,9.6,6,9.5,6C9.5,6.1,9.5,6.2,9.5,6.2z"/>
	<path class="st2" d="M4.5,6.3c0-0.1,0-0.2,0-0.3c0.1,0,0.1,0,0.2,0c0,0.1,0,0.2,0,0.2C4.6,6.3,4.5,6.3,4.5,6.3z M4.5,6.2
		c0.1,0,0.1,0,0.1-0.1C4.6,6,4.6,6,4.5,6C4.5,6.1,4.5,6.2,4.5,6.2z"/>
	<path class="st2" d="M2.2,6.1C2.2,6.2,2.2,6.2,2.2,6.1c0,0.1-0.1,0.2-0.1,0.2c0,0-0.1,0-0.1-0.1c0-0.1,0-0.1,0-0.2C2,6,2,6,2.1,6
		C2.1,6,2.2,6,2.2,6.1C2.2,6.1,2.2,6.1,2.2,6.1z M2.1,6.1C2.1,6.1,2.1,6.1,2.1,6.1c0-0.1,0-0.1-0.1-0.1c0,0,0,0-0.1,0.1
		c0,0,0,0.1,0,0.1C2,6.2,2,6.2,2.1,6.1C2.1,6.2,2.1,6.2,2.1,6.1C2.1,6.2,2.1,6.2,2.1,6.1z"/>
	<path class="st2" d="M7.1,6.1C7.1,6,7.1,6,7.2,6C7.3,6,7.3,6,7.3,6.1c0,0.1,0,0.2-0.1,0.2C7.1,6.3,7.1,6.2,7.1,6.1z M7.3,6.1
		C7.3,6.1,7.3,6.1,7.3,6.1c0,0,0-0.1-0.1-0.1C7.1,6,7.1,6.1,7.1,6.1c0,0,0,0,0,0.1c0,0,0,0.1,0.1,0C7.2,6.2,7.3,6.2,7.3,6.1
		C7.3,6.2,7.3,6.2,7.3,6.1z"/>
	<path class="st2" d="M5.7,6.3c0-0.1,0-0.2,0-0.3c0,0,0.1,0,0.1,0c0,0,0,0,0,0c0,0,0,0,0,0c0,0-0.1,0-0.1,0.1c0,0,0.1,0,0.1,0
		c0,0,0,0,0,0c0,0,0,0,0,0c0,0-0.1,0-0.1,0C5.7,6.2,5.7,6.2,5.7,6.3c0.1-0.1,0.1-0.1,0.2-0.1c0,0,0,0,0,0c0,0,0,0,0,0
		C5.8,6.3,5.7,6.3,5.7,6.3z"/>
	<path class="st2" d="M6.1,6.1c0,0.1,0,0.1,0,0.2c0,0,0,0,0,0C6,6.2,6,6.1,6,6C6.1,6,6.1,6,6.1,6.1C6.1,6.1,6.1,6.1,6.1,6.1
		C6.2,6.1,6.2,6,6.2,6c0,0,0,0,0,0c0,0,0,0,0,0c0,0.1,0,0.2,0,0.3c0,0,0,0,0,0c0,0,0,0,0,0C6.1,6.2,6.1,6.2,6.1,6.1z"/>
	<path class="st2" d="M3.4,6c0.1,0,0.1,0,0.1,0c0,0,0,0,0,0c0,0,0,0,0,0C3.5,6,3.5,6,3.4,6c0.1,0.2,0.1,0.1,0.2,0.1c0,0,0,0,0,0
		c0,0,0,0-0.1,0c0,0-0.1,0-0.1,0c0,0.1,0,0,0.1,0c0,0,0,0,0.1,0c0,0,0,0-0.1,0c-0.1,0-0.1,0-0.1-0.1C3.4,6.1,3.4,6,3.4,6z"/>
	<path class="st2" d="M8.2,6.3c0-0.1,0-0.2,0-0.3c0,0,0.1,0,0.1,0c0,0,0,0,0,0c0,0,0,0,0,0c0,0,0,0,0,0c-0.1,0-0.1,0,0,0.1
		c0,0,0.1,0,0.1,0c0,0,0,0-0.1,0.1C8.2,6.2,8.2,6.2,8.2,6.3c0.1-0.1,0.1-0.1,0.1-0.1c0,0,0,0,0,0c0,0,0,0,0,0
		C8.3,6.3,8.2,6.3,8.2,6.3z"/>
	<path class="st2" d="M9.1,6c0.1,0,0.1,0,0.2,0C9.3,6,9.3,6,9.3,6c0,0-0.1,0-0.1,0.1c0,0,0.1,0,0.1,0c0,0,0,0,0,0c0,0,0,0,0,0
		c0,0-0.1,0-0.1,0c0,0,0,0.1,0,0.1c0,0,0.1,0,0.1,0c0,0,0,0,0,0c0,0,0,0,0,0c0,0,0,0,0,0c-0.2,0-0.1,0-0.1-0.1C9.1,6.1,9.1,6,9.1,6z
		"/>
	<path class="st2" d="M2.7,6c0.1,0,0.1,0,0.1,0c0,0,0,0,0,0c0,0,0,0,0,0C2.9,6,2.8,6,2.7,6C2.8,6,2.8,6.1,2.7,6
		c0.1,0.1,0.1,0.1,0.1,0.1c0,0,0,0,0.1,0c0,0,0,0,0,0c0,0,0,0,0,0c0,0-0.1,0-0.1,0c0,0.1,0.1,0,0.1,0c0,0,0,0,0,0c0,0,0,0,0,0
		c-0.1,0-0.1,0-0.1-0.1C2.7,6.1,2.7,6,2.7,6z"/>
	<path class="st2" d="M1.1,6C1.1,6,1.1,6,1.1,6C1,6,1,6,1,6c0,0,0,0.1,0,0.1C1,6.1,1,6.1,1.1,6c0,0.1,0,0.1-0.1,0.2c0,0,0,0,0,0.1
		c0,0,0.1,0,0.1,0c0,0,0,0,0,0c0,0,0,0,0,0c0,0-0.1,0-0.1,0c0-0.1,0-0.2,0-0.3C1,6,1,6,1.1,6C1.1,6,1.1,6,1.1,6z"/>
	<path class="st2" d="M6.7,6.1c0,0,0-0.1,0-0.1c0,0,0.1,0,0.1,0c0,0,0.1,0,0.1,0.1c0,0,0,0,0,0c0,0,0,0,0,0c0,0-0.1,0-0.1,0
		C6.8,6.1,6.8,6.1,6.7,6.1C6.8,6.1,6.8,6.2,6.7,6.1c0.1,0.1,0.1,0.1,0.1,0.1c0,0,0,0,0.1,0c0,0,0,0,0,0c0,0,0,0,0,0
		c0,0,0,0.1-0.1,0.1c0,0-0.1,0-0.1,0C6.8,6.2,6.7,6.2,6.7,6.1z"/>
	<path class="st2" d="M8.7,6.2C8.7,6.2,8.7,6.2,8.7,6.2c0,0.1,0,0.1-0.1,0.1c0,0-0.1,0-0.1,0c0-0.1,0-0.2,0-0.2c0,0,0.1,0,0.1,0
		c0,0,0.1,0,0.1,0.1c0,0,0,0,0,0c0,0,0,0,0,0c-0.1,0-0.1,0-0.1,0c0,0,0,0,0,0.1C8.5,6.2,8.6,6.2,8.7,6.2C8.6,6.2,8.6,6.2,8.7,6.2z"
		/>
	<path class="st2" d="M5.3,6C5.4,6,5.4,6,5.3,6c0.1,0.1,0.1,0.2,0.1,0.2C5.5,6.1,5.5,6,5.5,6c0,0,0,0,0,0c0,0.1,0,0.2-0.1,0.3
		c0,0,0,0,0,0c0,0,0,0,0,0C5.4,6.2,5.4,6.1,5.3,6z"/>
	<path class="st2" d="M1.7,6.2C1.7,6.2,1.7,6.2,1.7,6.2c0,0.1,0,0.1,0,0.1C1.6,6.3,1.6,6.3,1.7,6.2c-0.1,0,0-0.1,0-0.2
		C1.7,6,1.8,6,1.8,6C1.8,6.1,1.8,6.2,1.7,6.2z M1.7,6.1C1.7,6.1,1.7,6.1,1.7,6.1C1.8,6.1,1.8,6.1,1.7,6.1C1.7,6,1.7,6,1.7,6
		C1.7,6.1,1.7,6.1,1.7,6.1z"/>
	<path class="st2" d="M8.9,6C8.8,6,8.8,6,8.9,6C8.8,6,8.9,6,8.9,6C8.9,6,9,6,9,6c0,0,0,0,0,0C9,6,9,6,8.9,6c0.1,0.1,0.1,0.1,0.1,0.2
		c0,0,0,0,0,0.1c0,0,0,0,0-0.1C8.9,6.2,8.9,6.1,8.9,6C8.9,6,8.9,6,8.9,6z"/>
	<path class="st2" d="M5.2,6.3c0-0.1,0-0.2,0-0.3c0,0,0,0,0,0c0,0,0,0,0,0.1C5.2,6.3,5.2,6.3,5.2,6.3z"/>
</g>
</svg>
