<?xml version="1.0" encoding="utf-8"?>
<!-- Generator: Adobe Illustrator 26.0.1, SVG Export Plug-In . SVG Version: 6.00 Build 0)  -->
<svg version="1.1" id="Layer_1" xmlns="http://www.w3.org/2000/svg" xmlns:xlink="http://www.w3.org/1999/xlink" x="0px" y="0px"
	 viewBox="0 0 35 35" style="enable-background:new 0 0 35 35;" xml:space="preserve">
<g>
	<path d="M2.2,17.5C2.2,9,9,2.2,17.5,2.2C26,2.2,32.8,9,32.8,17.5c0,8.4-6.9,15.3-15.5,15.2C9,32.7,2.2,25.9,2.2,17.5z M7.2,25.5
		c2.4-3.7,5.8-5.8,10.3-5.8c4.5,0,7.9,2.1,10.3,5.8c4-5.1,3.7-13.1-1.7-17.9C20.7,2.9,12.6,3.4,7.8,8.8C3.1,14,3.7,21.3,7.2,25.5z
		 M26.2,27.2c-1.3-2.8-4.6-5.3-8.6-5.3c-4.2,0-7.5,2.5-8.8,5.3C13.6,31.7,21.3,31.7,26.2,27.2z"/>
	<path d="M17.5,17.5c-3,0-5.4-2.4-5.4-5.4c0-3.1,2.4-5.5,5.4-5.5c3.1,0,5.5,2.4,5.5,5.5C23,15.1,20.5,17.5,17.5,17.5z M20.8,12
		c0-1.8-1.5-3.3-3.2-3.3c-1.8,0-3.3,1.5-3.3,3.3c0,1.8,1.5,3.3,3.3,3.3C19.3,15.3,20.8,13.8,20.8,12z"/>
</g>
</svg>
